<svg width="28" height="30" viewBox="0 0 28 30" fill="none" xmlns="http://www.w3.org/2000/svg">
<g filter="url(#filter0_d_115_31)">
<path d="M11 3.5V20.5M18 15L15 12L18 9" stroke="white" stroke-width="1.5" stroke-linecap="round" stroke-linejoin="round"/>
<path d="M5 9.4C5 7.16 5 6.04 5.436 5.184C5.81949 4.43139 6.43139 3.81949 7.184 3.436C8.04 3 9.16 3 11.4 3H16.6C18.84 3 19.96 3 20.816 3.436C21.5686 3.81949 22.1805 4.43139 22.564 5.184C23 6.04 23 7.16 23 9.4V14.6C23 16.84 23 17.96 22.564 18.816C22.1805 19.5686 21.5686 20.1805 20.816 20.564C19.96 21 18.84 21 16.6 21H11.4C9.16 21 8.04 21 7.184 20.564C6.43139 20.1805 5.81949 19.5686 5.436 18.816C5 17.96 5 16.84 5 14.6V9.4Z" stroke="white" stroke-width="1.5" stroke-linecap="round" stroke-linejoin="round"/>
</g>
<defs>
<filter id="filter0_d_115_31" x="-2" y="0" width="32" height="32" filterUnits="userSpaceOnUse" color-interpolation-filters="sRGB">
<feFlood flood-opacity="0" result="BackgroundImageFix"/>
<feColorMatrix in="SourceAlpha" type="matrix" values="0 0 0 0 0 0 0 0 0 0 0 0 0 0 0 0 0 0 127 0" result="hardAlpha"/>
<feOffset dy="4"/>
<feGaussianBlur stdDeviation="2"/>
<feComposite in2="hardAlpha" operator="out"/>
<feColorMatrix type="matrix" values="0 0 0 0 0 0 0 0 0 0 0 0 0 0 0 0 0 0 0.25 0"/>
<feBlend mode="normal" in2="BackgroundImageFix" result="effect1_dropShadow_115_31"/>
<feBlend mode="normal" in="SourceGraphic" in2="effect1_dropShadow_115_31" result="shape"/>
</filter>
</defs>
</svg>
