<svg width="24" height="24" viewBox="0 0 24 24" fill="none" xmlns="http://www.w3.org/2000/svg">
<path d="M12 0C5.4 0 0 4.8 0 10.6667C0 13.6 1.32 16.2667 3.36 18C3.36 18.8 2.88 20.9333 0 24C2.88 23.8667 5.52 22.6667 7.8 20.6667C9.12 21.0667 10.56 21.3333 12 21.3333C18.6 21.3333 24 16.5333 24 10.6667C24 4.8 18.6 0 12 0ZM12 18.6667C6.72 18.6667 2.4 15.0667 2.4 10.6667C2.4 6.26667 6.72 2.66667 12 2.66667C17.28 2.66667 21.6 6.26667 21.6 10.6667C21.6 15.0667 17.28 18.6667 12 18.6667ZM12.24 4.66667C11.16 4.66667 10.32 4.93333 9.72 5.33333C9 5.86667 8.64 6.66667 8.76 7.6H11.16C11.16 7.2 11.28 6.93333 11.52 6.8C11.76 6.66667 12 6.53333 12.36 6.53333C12.72 6.53333 13.08 6.66667 13.32 6.93333C13.56 7.2 13.68 7.46667 13.68 7.86667C13.68 8.26667 13.56 8.53333 13.44 8.8C13.2 9.06667 12.96 9.33333 12.72 9.46667C12.12 9.86667 11.64 10.2667 11.4 10.5333C10.92 10.9333 10.8 11.3333 10.8 12H13.2C13.2 11.6 13.32 11.3333 13.32 11.0667C13.44 10.8 13.68 10.6667 13.92 10.4C14.52 10.1333 14.88 9.73333 15.24 9.2C15.6 8.66667 15.72 8.13333 15.72 7.6C15.72 6.66667 15.36 5.86667 14.76 5.33333C14.28 4.93333 13.32 4.66667 12.24 4.66667ZM10.8 13.3333V16H13.2V13.3333H10.8Z" fill="white"/>
</svg>
