<svg width="18" height="18" viewBox="0 0 18 18" fill="none" xmlns="http://www.w3.org/2000/svg">
<path d="M0.948712 6.13684H4.34434V17.0625H0.948712V6.13684ZM2.64746 0.699341C3.03692 0.699341 3.41764 0.814854 3.74143 1.03127C4.06523 1.24768 4.31757 1.55527 4.46653 1.91512C4.61548 2.27497 4.65436 2.67091 4.57824 3.05286C4.50213 3.43482 4.31444 3.78561 4.03891 4.06087C3.76339 4.33613 3.41242 4.52349 3.0304 4.59924C2.64837 4.67499 2.25246 4.63574 1.89275 4.48644C1.53304 4.33714 1.2257 4.08451 1.00959 3.7605C0.793491 3.4365 0.678341 3.05568 0.678712 2.66622C0.679209 2.1444 0.886849 1.64412 1.25601 1.27531C1.62517 0.906504 2.12564 0.699341 2.64746 0.699341ZM6.47434 6.13684H9.72934V7.63684H9.77434C10.2281 6.77809 11.3343 5.87247 12.9862 5.87247C16.425 5.86497 17.0625 8.12809 17.0625 11.0625V17.0625H13.6668V11.7468C13.6668 10.4812 13.6443 8.85184 11.9025 8.85184C10.1606 8.85184 9.86434 10.2318 9.86434 11.6643V17.0625H6.47434V6.13684Z" fill="white"/>
</svg>
