<svg width="24" height="24" viewBox="0 0 24 24" fill="none" xmlns="http://www.w3.org/2000/svg">
<path d="M12.0128 22.4947C6.231 22.4947 1.5225 17.796 1.51275 12.0127C1.50667 10.6333 1.7744 9.26641 2.30044 7.99121C2.82648 6.71602 3.60037 5.55791 4.57725 4.58398L5.64 5.64298C4.80277 6.47788 4.13946 7.47055 3.68849 8.56354C3.23752 9.65653 3.00784 10.8281 3.01275 12.0105C3.01159 13.1929 3.24498 14.3638 3.69943 15.4553C4.15388 16.5469 4.82035 17.5375 5.66025 18.3697C6.49355 19.2048 7.48387 19.8666 8.57414 20.3171C9.66441 20.7677 10.8331 20.998 12.0128 20.9947H12.0278C13.0183 20.9957 14.002 20.8304 14.9378 20.5057L15.4343 21.9217C14.3398 22.3019 13.1893 22.4956 12.0308 22.4947H12.0128Z" fill="white"/>
<path d="M11.25 12H12.75V15H14.25C14.6478 15 15.0294 15.158 15.3107 15.4393C15.592 15.7206 15.75 16.1022 15.75 16.5V18.75H14.25V16.5H12.75V18.75H11.25V16.5H9.75V18.75H8.25V16.5C8.25 16.1022 8.40804 15.7206 8.68934 15.4393C8.97064 15.158 9.35218 15 9.75 15H11.25V12ZM17.25 19.5C17.4489 19.5 17.6397 19.579 17.7803 19.7197C17.921 19.8603 18 20.0511 18 20.25C18 20.4489 17.921 20.6397 17.7803 20.7803C17.6397 20.921 17.4489 21 17.25 21C17.0511 21 16.8603 20.921 16.7197 20.7803C16.579 20.6397 16.5 20.4489 16.5 20.25C16.5 20.0511 16.579 19.8603 16.7197 19.7197C16.8603 19.579 17.0511 19.5 17.25 19.5ZM6.75 3C6.94891 3 7.13968 3.07902 7.28033 3.21967C7.42098 3.36032 7.5 3.55109 7.5 3.75C7.5 3.94891 7.42098 4.13968 7.28033 4.28033C7.13968 4.42098 6.94891 4.5 6.75 4.5C6.55109 4.5 6.36032 4.42098 6.21967 4.28033C6.07902 4.13968 6 3.94891 6 3.75C6 3.55109 6.07902 3.36032 6.21967 3.21967C6.36032 3.07902 6.55109 3 6.75 3Z" fill="white"/>
<path d="M15.69 7.5795C15.3735 5.8305 13.839 4.5 12 4.5C10.161 4.5 8.6265 5.8305 8.31 7.5795C7.65292 7.73616 7.06772 8.10946 6.64867 8.63926C6.22962 9.16906 6.00112 9.82451 6 10.5C6 12.1545 7.3455 13.5 9 13.5H9.75V12H9C8.17275 12 7.5 11.3273 7.5 10.5C7.5 9.67275 8.17275 9 9 9H9.75V8.25C9.75 7.0095 10.7595 6 12 6C13.2405 6 14.25 7.0095 14.25 8.25V9H15C15.8273 9 16.5 9.6735 16.5 10.5C16.5 11.3265 15.8273 12 15 12H14.25V13.5H15C16.6545 13.5 18 12.1545 18 10.5C17.9989 9.82451 17.7704 9.16906 17.3513 8.63926C16.9323 8.10946 16.3471 7.73616 15.69 7.5795Z" fill="white"/>
<path d="M19.425 19.4177L18.3645 18.3564C19.203 17.523 19.8679 16.5316 20.3206 15.4395C20.7734 14.3474 21.0051 13.1764 21.0023 11.9942C21.0023 7.03217 16.965 2.99417 12.0022 2.99417C10.9897 2.99417 10.011 3.15692 9.0915 3.47717L8.598 2.06117C9.69302 1.68298 10.8438 1.49132 12.0022 1.49417C17.7922 1.49417 22.5023 6.20417 22.5023 11.9942C22.5023 14.7969 21.4095 17.4332 19.425 19.4177Z" fill="white"/>
</svg>
